<mxfile host="app.diagrams.net" modified="2023-04-24T17:20:21.750Z" agent="Mozilla/5.0 (X11; Ubuntu; Linux x86_64; rv:109.0) Gecko/20100101 Firefox/112.0" etag="2CtNaiBWx_LCtcqSbXmY" version="21.2.1" type="device">
  <diagram id="EQ_hMzsMNe4SvkdJaQWN" name="neuralmed">
    <mxGraphModel dx="468" dy="1665" grid="1" gridSize="10" guides="1" tooltips="1" connect="1" arrows="1" fold="1" page="1" pageScale="1" pageWidth="850" pageHeight="1100" math="0" shadow="0">
      <root>
        <mxCell id="0" />
        <mxCell id="1" parent="0" />
        <mxCell id="TmKrxlAaGTh6eG4mNa5S-2" value="&lt;div style=&quot;font-size: 19px;&quot; align=&quot;left&quot;&gt;GCP&lt;br&gt;&lt;/div&gt;" style="rounded=1;whiteSpace=wrap;html=1;fillColor=#d5e8d4;strokeColor=none;shadow=1;opacity=30;align=center;labelPosition=center;verticalLabelPosition=top;verticalAlign=bottom;fontStyle=1;fontSize=19;" parent="1" vertex="1">
          <mxGeometry x="1260" y="-1033" width="816" height="440" as="geometry" />
        </mxCell>
        <mxCell id="zS3Y7hXwmhIa5-vVhI_x-2" value="" style="group" parent="1" vertex="1" connectable="0">
          <mxGeometry x="1500" y="-958" width="250" height="320" as="geometry" />
        </mxCell>
        <mxCell id="_mMUSFEcQRph6svDePOc-41" value="RawÂ Data" style="swimlane;swimlaneFillColor=#BAC8D3;fillColor=#bac8d3;shadow=0;opacity=40;strokeColor=#23445D;container=0;" parent="zS3Y7hXwmhIa5-vVhI_x-2" vertex="1">
          <mxGeometry x="-30" y="-25.26" width="240" height="345.26" as="geometry" />
        </mxCell>
        <mxCell id="_mMUSFEcQRph6svDePOc-44" value="" style="strokeColor=#dddddd;shadow=1;strokeWidth=1;rounded=1;absoluteArcSize=1;arcSize=2;fillColor=#E1F2FF;gradientColor=#ffffff;container=0;verticalAlign=top;labelPosition=center;verticalLabelPosition=top;align=center;horizontal=0;" parent="zS3Y7hXwmhIa5-vVhI_x-2" vertex="1">
          <mxGeometry y="4" width="190" height="76" as="geometry" />
        </mxCell>
        <mxCell id="_mMUSFEcQRph6svDePOc-48" value="&lt;br&gt;&lt;br&gt;&lt;br&gt;BigQuery&lt;br&gt;&lt;span style=&quot;color: rgb(0 , 0 , 0)&quot;&gt;Raw Datasets&lt;/span&gt;" style="dashed=0;connectable=0;html=1;fillColor=#5184F3;strokeColor=none;shape=mxgraph.gcp2.hexIcon;prIcon=bigquery;part=1;labelPosition=right;verticalLabelPosition=middle;align=left;verticalAlign=middle;spacingLeft=5;fontColor=#999999;fontSize=12;container=0;" parent="zS3Y7hXwmhIa5-vVhI_x-2" vertex="1">
          <mxGeometry x="-1" y="8.213333333333333" width="51" height="32.81230769230769" as="geometry">
            <mxPoint x="5" y="-19.5" as="offset" />
          </mxGeometry>
        </mxCell>
        <mxCell id="_mMUSFEcQRph6svDePOc-51" value="&lt;span style=&quot;border-bottom: 1px dotted&quot;&gt;External Tables&lt;/span&gt;" style="ellipse;whiteSpace=wrap;html=1;align=center;shadow=1;container=0;" parent="zS3Y7hXwmhIa5-vVhI_x-2" vertex="1">
          <mxGeometry x="58" y="41.03" width="100" height="28.97" as="geometry" />
        </mxCell>
        <mxCell id="_mMUSFEcQRph6svDePOc-1" value="Sources" style="swimlane;swimlaneFillColor=#F8CECC;shadow=0;opacity=50;fillColor=#F8CECC;strokeColor=#CDA2BE;container=0;" parent="1" vertex="1">
          <mxGeometry x="1060" y="-837.5" width="175" height="189" as="geometry">
            <mxRectangle x="820" y="-960" width="230" height="23" as="alternateBounds" />
          </mxGeometry>
        </mxCell>
        <mxCell id="_mMUSFEcQRph6svDePOc-34" value="Process &amp; Analyze" style="swimlane;swimlaneFillColor=#BAC8D3;shadow=0;opacity=40;fillColor=#BAC8D3;strokeColor=#23445D;container=0;" parent="1" vertex="1">
          <mxGeometry x="1790" y="-990" width="220" height="350" as="geometry" />
        </mxCell>
        <mxCell id="_yzsMCz6sDdZTk66PIAO-7" value="" style="group" parent="_mMUSFEcQRph6svDePOc-34" vertex="1" connectable="0">
          <mxGeometry x="20" y="30.00000000000001" width="170" height="87.5" as="geometry" />
        </mxCell>
        <mxCell id="_yzsMCz6sDdZTk66PIAO-2" value="" style="strokeColor=#dddddd;shadow=1;strokeWidth=1;rounded=1;absoluteArcSize=1;arcSize=2;fillColor=#E1F2FF;gradientColor=#ffffff;container=0;verticalAlign=top;labelPosition=center;verticalLabelPosition=top;align=center;horizontal=0;" parent="_yzsMCz6sDdZTk66PIAO-7" vertex="1">
          <mxGeometry y="15.399999999999977" width="170" height="72.1" as="geometry" />
        </mxCell>
        <mxCell id="_yzsMCz6sDdZTk66PIAO-4" value="&lt;br&gt;&lt;br&gt;&lt;br&gt;BigQuery&lt;br&gt;&lt;span style=&quot;color: rgb(0 , 0 , 0)&quot;&gt;Prep Datasets&lt;/span&gt;" style="dashed=0;connectable=0;html=1;fillColor=#5184F3;strokeColor=none;shape=mxgraph.gcp2.hexIcon;prIcon=bigquery;part=1;labelPosition=right;verticalLabelPosition=middle;align=left;verticalAlign=middle;spacingLeft=5;fontColor=#999999;fontSize=12;container=0;" parent="_yzsMCz6sDdZTk66PIAO-7" vertex="1">
          <mxGeometry y="19.5" width="51" height="39.99" as="geometry">
            <mxPoint x="5" y="-19.5" as="offset" />
          </mxGeometry>
        </mxCell>
        <mxCell id="_mMUSFEcQRph6svDePOc-38" value="" style="strokeColor=#dddddd;shadow=1;strokeWidth=1;rounded=1;absoluteArcSize=1;arcSize=2;fillColor=#E1F2FF;gradientColor=#ffffff;container=0;" parent="_mMUSFEcQRph6svDePOc-34" vertex="1">
          <mxGeometry x="23" y="210" width="160" height="50" as="geometry" />
        </mxCell>
        <mxCell id="_mMUSFEcQRph6svDePOc-39" value="&lt;span style=&quot;text-align: left ; background-color: rgb(248 , 249 , 250) ; color: rgb(153 , 153 , 153)&quot;&gt;&amp;nbsp; &amp;nbsp;BigQuery&lt;/span&gt;&lt;br style=&quot;font-size: 11px ; text-align: left ; background-color: rgb(248 , 249 , 250)&quot;&gt;&lt;span style=&quot;font-size: 11px ; text-align: left ; background-color: rgb(248 , 249 , 250)&quot;&gt;&amp;nbsp; &amp;nbsp;Scheduler Query&lt;/span&gt;&lt;span style=&quot;font-size: 11px ; text-align: left ; background-color: rgb(248 , 249 , 250)&quot;&gt;&lt;br&gt;&lt;/span&gt;" style="shape=image;html=1;verticalAlign=middle;verticalLabelPosition=middle;labelBackgroundColor=#ffffff;imageAspect=0;aspect=fixed;image=https://cdn2.iconfinder.com/data/icons/crystalproject/Open-Office-Icons/stock_macro-stop-after-procedure-16.png;hachureGap=4;pointerEvents=0;labelPosition=right;align=left;container=0;" parent="_mMUSFEcQRph6svDePOc-34" vertex="1">
          <mxGeometry x="30.5" y="213" width="40" height="40" as="geometry" />
        </mxCell>
        <mxCell id="_yzsMCz6sDdZTk66PIAO-11" value="" style="edgeStyle=orthogonalEdgeStyle;fontSize=12;html=1;endArrow=none;endFill=1;rounded=0;strokeWidth=2;endSize=4;startSize=4;dashed=0;strokeColor=#4284F3;startArrow=blockThin;startFill=1;entryX=0.516;entryY=0.012;entryDx=0;entryDy=0;exitX=0.5;exitY=1;exitDx=0;exitDy=0;entryPerimeter=0;" parent="_mMUSFEcQRph6svDePOc-34" target="_mMUSFEcQRph6svDePOc-38" edge="1" source="_yzsMCz6sDdZTk66PIAO-2">
          <mxGeometry width="100" relative="1" as="geometry">
            <mxPoint x="110" y="190" as="sourcePoint" />
            <mxPoint x="40" y="95" as="targetPoint" />
          </mxGeometry>
        </mxCell>
        <mxCell id="_mMUSFEcQRph6svDePOc-65" value="" style="edgeStyle=orthogonalEdgeStyle;fontSize=12;html=1;endArrow=none;endFill=1;rounded=0;strokeWidth=2;endSize=4;startSize=4;dashed=0;strokeColor=#4284F3;startArrow=blockThin;startFill=1;entryX=1;entryY=0.5;entryDx=0;entryDy=0;exitX=0;exitY=0.5;exitDx=0;exitDy=0;" parent="1" source="_mMUSFEcQRph6svDePOc-42" target="_mMUSFEcQRph6svDePOc-31" edge="1">
          <mxGeometry width="100" relative="1" as="geometry">
            <mxPoint x="1478.9999999999995" y="-624" as="sourcePoint" />
            <mxPoint x="1350" y="-595" as="targetPoint" />
          </mxGeometry>
        </mxCell>
        <mxCell id="_mMUSFEcQRph6svDePOc-66" value="" style="edgeStyle=orthogonalEdgeStyle;fontSize=12;html=1;endArrow=none;endFill=1;rounded=0;strokeWidth=2;endSize=4;startSize=4;dashed=0;strokeColor=#4284F3;startArrow=blockThin;startFill=1;exitX=0.01;exitY=0.459;exitDx=0;exitDy=0;exitPerimeter=0;" parent="1" source="_mMUSFEcQRph6svDePOc-31" target="_mMUSFEcQRph6svDePOc-19" edge="1">
          <mxGeometry width="100" relative="1" as="geometry">
            <mxPoint x="1261.45" y="-728.7" as="sourcePoint" />
            <mxPoint x="1185.6999999999998" y="-504.9999999999998" as="targetPoint" />
          </mxGeometry>
        </mxCell>
        <mxCell id="_mMUSFEcQRph6svDePOc-17" value="&lt;div style=&quot;text-align: right&quot;&gt;&lt;b&gt;Data files&lt;/b&gt;&lt;/div&gt;&lt;div style=&quot;text-align: right&quot;&gt;&lt;b&gt;&lt;br&gt;&lt;/b&gt;&lt;/div&gt;" style="shape=image;html=1;verticalAlign=bottom;verticalLabelPosition=top;labelBackgroundColor=none;imageAspect=0;aspect=fixed;image=https://cdn2.iconfinder.com/data/icons/documents-31/128/Google_Docs_Spreadsheet.png;fillColor=#0066CC;gradientColor=#007FFF;opacity=90;labelPosition=center;align=center;container=0;" parent="1" vertex="1">
          <mxGeometry x="1112.5" y="-766.5" width="50" height="50" as="geometry" />
        </mxCell>
        <mxCell id="_mMUSFEcQRph6svDePOc-18" value="" style="shape=image;html=1;verticalAlign=top;verticalLabelPosition=bottom;labelBackgroundColor=#ffffff;imageAspect=0;aspect=fixed;image=https://cdn2.iconfinder.com/data/icons/documents-31/128/Google_Docs_Spreadsheet.png;fillColor=#0066CC;gradientColor=#007FFF;opacity=90;container=0;" parent="1" vertex="1">
          <mxGeometry x="1122.5" y="-756.5" width="50" height="50" as="geometry" />
        </mxCell>
        <mxCell id="_mMUSFEcQRph6svDePOc-19" value="" style="shape=image;html=1;verticalAlign=bottom;verticalLabelPosition=top;labelBackgroundColor=#ffffff;imageAspect=0;aspect=fixed;image=https://cdn2.iconfinder.com/data/icons/documents-31/128/Google_Docs_Spreadsheet.png;fillColor=#0066CC;gradientColor=#007FFF;opacity=90;labelPosition=center;align=center;container=0;" parent="1" vertex="1">
          <mxGeometry x="1132.5" y="-746.5" width="50" height="50" as="geometry" />
        </mxCell>
        <mxCell id="_mMUSFEcQRph6svDePOc-31" value="" style="shadow=1;strokeWidth=1;rounded=1;absoluteArcSize=1;arcSize=2;fillColor=#E1F2FF;gradientColor=#ffffff;strokeColor=none;container=0;" parent="1" vertex="1">
          <mxGeometry x="1279" y="-742" width="150" height="43.5" as="geometry" />
        </mxCell>
        <mxCell id="_mMUSFEcQRph6svDePOc-32" value="&lt;div&gt;&lt;br&gt;&lt;/div&gt;&lt;div&gt;&lt;br&gt;&lt;/div&gt;&lt;div&gt;Cloud Dataproc&lt;/div&gt;&lt;font color=&quot;#000000&quot;&gt;PySpark&lt;/font&gt;" style="dashed=0;connectable=0;html=1;fillColor=#5184F3;strokeColor=none;shape=mxgraph.gcp2.hexIcon;prIcon=cloud_dataproc;part=1;labelPosition=right;verticalLabelPosition=middle;align=left;verticalAlign=middle;spacingLeft=5;fontColor=#999999;fontSize=12;container=0;" parent="1" vertex="1">
          <mxGeometry x="1275" y="-742" width="44" height="39" as="geometry">
            <mxPoint x="5" y="-19.5" as="offset" />
          </mxGeometry>
        </mxCell>
        <mxCell id="_mMUSFEcQRph6svDePOc-42" value="" style="strokeColor=#dddddd;shadow=1;strokeWidth=1;rounded=1;absoluteArcSize=1;arcSize=2;fillColor=#E1F2FF;gradientColor=#ffffff;container=0;" parent="1" vertex="1">
          <mxGeometry x="1497" y="-790" width="193" height="80" as="geometry" />
        </mxCell>
        <mxCell id="_mMUSFEcQRph6svDePOc-43" value="gs://neuralmed-tst" style="rounded=0;whiteSpace=wrap;html=1;align=left;shadow=1;container=0;" parent="1" vertex="1">
          <mxGeometry x="1555" y="-747" width="108" height="30" as="geometry" />
        </mxCell>
        <mxCell id="_mMUSFEcQRph6svDePOc-53" value="&lt;span style=&quot;color: rgb(179 , 179 , 179)&quot;&gt;&lt;br&gt;Cloud Storage&lt;br&gt;&lt;/span&gt;&lt;span style=&quot;color: rgb(0 , 0 , 0)&quot;&gt;Raw&amp;nbsp;&lt;/span&gt;&lt;font color=&quot;#000000&quot;&gt;Buckets&lt;br&gt;&lt;/font&gt;&lt;font color=&quot;#000000&quot;&gt;&lt;br&gt;&lt;/font&gt;" style="dashed=0;connectable=0;html=1;fillColor=#5184F3;strokeColor=none;shape=mxgraph.gcp2.hexIcon;prIcon=cloud_storage;part=1;labelPosition=right;verticalLabelPosition=middle;align=left;verticalAlign=middle;spacingLeft=5;fontColor=#999999;fontSize=12;container=0;" parent="1" vertex="1">
          <mxGeometry x="1501" y="-780.0049999999999" width="44" height="39" as="geometry" />
        </mxCell>
        <mxCell id="_mMUSFEcQRph6svDePOc-58" value="" style="edgeStyle=orthogonalEdgeStyle;fontSize=12;html=1;endArrow=none;endFill=1;rounded=0;strokeWidth=2;endSize=4;startSize=4;dashed=0;strokeColor=#4284F3;startArrow=blockThin;startFill=1;entryX=0.5;entryY=1;entryDx=0;entryDy=0;exitX=0.75;exitY=0;exitDx=0;exitDy=0;" parent="1" source="_mMUSFEcQRph6svDePOc-43" target="_mMUSFEcQRph6svDePOc-51" edge="1">
          <mxGeometry width="100" relative="1" as="geometry">
            <mxPoint x="1750" y="-795" as="sourcePoint" />
            <mxPoint x="1320" y="-675" as="targetPoint" />
          </mxGeometry>
        </mxCell>
        <mxCell id="_yzsMCz6sDdZTk66PIAO-8" value="" style="edgeStyle=orthogonalEdgeStyle;fontSize=12;html=1;endArrow=none;endFill=1;rounded=0;strokeWidth=2;endSize=4;startSize=4;dashed=0;strokeColor=#4284F3;startArrow=blockThin;startFill=1;entryX=0;entryY=0.5;entryDx=0;entryDy=0;exitX=1;exitY=0.5;exitDx=0;exitDy=0;" parent="1" source="_mMUSFEcQRph6svDePOc-51" target="_mMUSFEcQRph6svDePOc-38" edge="1">
          <mxGeometry width="100" relative="1" as="geometry">
            <mxPoint x="1646" y="-737" as="sourcePoint" />
            <mxPoint x="1618" y="-880" as="targetPoint" />
          </mxGeometry>
        </mxCell>
        <mxCell id="TX_lVik8w8mRBUl6CHea-2" value="" style="strokeColor=#dddddd;shadow=1;strokeWidth=1;rounded=1;absoluteArcSize=1;arcSize=2;" vertex="1" parent="1">
          <mxGeometry x="1512" y="-560" width="160" height="60" as="geometry" />
        </mxCell>
        <mxCell id="TX_lVik8w8mRBUl6CHea-3" value="&lt;font color=&quot;#000000&quot;&gt;Airflow&lt;/font&gt;&lt;br&gt;Cloud Composer" style="editableCssRules=.*;html=1;fontColor=#999999;shape=image;verticalLabelPosition=middle;labelBackgroundColor=#ffffff;verticalAlign=middle;labelPosition=right;align=left;spacingLeft=20;part=1;points=[];imageAspect=0;image=data:image/svg+xml,PHN2ZyB4bWxucz0iaHR0cDovL3d3dy53My5vcmcvMjAwMC9zdmciIHhtbG5zOnY9Imh0dHBzOi8vdmVjdGEuaW8vbmFubyIgd2lkdGg9IjE0LjY0MDAwMDM0MzMyMjc1NCIgaGVpZ2h0PSIyMCIgdmlld0JveD0iMCAwIDE0LjY0MDAwMDM0MzMyMjc1NCAyMCI+JiN4YTsJPHN0eWxlIHR5cGU9InRleHQvY3NzIj4mI3hhOwkuc3Qwe2ZpbGw6I2FlY2JmYTt9JiN4YTsJLnN0MXtmaWxsOiM0Mjg1ZjQ7fSYjeGE7CTwvc3R5bGU+JiN4YTsJPHBhdGggY2xhc3M9InN0MCIgZD0iTTAgMGgxNC42M3YzLjk0aC01LjN2NS4zM0g1LjM1VjMuOTZIMHoiLz4mI3hhOwk8cGF0aCBjbGFzcz0ic3QxIiBkPSJNMy45NSAxMC42N2g1LjM0VjIwSDUuMzV2LTUuMzVIMFY1LjM3aDMuOTV6TTE0LjY0IDIwSDEwLjdWNS4zNmgzLjk0eiIvPiYjeGE7CTxwYXRoIGNsYXNzPSJzdDAiIGQ9Ik0wIDE2LjA2aDMuOTJWMjBIMHoiLz4mI3hhOzwvc3ZnPg==;" vertex="1" parent="TX_lVik8w8mRBUl6CHea-2">
          <mxGeometry width="22" height="30" relative="1" as="geometry">
            <mxPoint x="19" y="15" as="offset" />
          </mxGeometry>
        </mxCell>
        <mxCell id="TX_lVik8w8mRBUl6CHea-5" value="" style="edgeStyle=orthogonalEdgeStyle;fontSize=12;html=1;endArrow=none;endFill=1;rounded=0;strokeWidth=2;endSize=4;startSize=4;dashed=0;strokeColor=#4284F3;startArrow=blockThin;startFill=1;entryX=0;entryY=0.5;entryDx=0;entryDy=0;exitX=0.5;exitY=1;exitDx=0;exitDy=0;" edge="1" parent="1" source="_mMUSFEcQRph6svDePOc-31" target="TX_lVik8w8mRBUl6CHea-2">
          <mxGeometry width="100" relative="1" as="geometry">
            <mxPoint x="1555" y="-590" as="sourcePoint" />
            <mxPoint x="1487" y="-560" as="targetPoint" />
          </mxGeometry>
        </mxCell>
        <mxCell id="TX_lVik8w8mRBUl6CHea-6" value="" style="edgeStyle=orthogonalEdgeStyle;fontSize=12;html=1;endArrow=none;endFill=1;rounded=0;strokeWidth=2;endSize=4;startSize=4;dashed=0;strokeColor=#4284F3;startArrow=blockThin;startFill=1;entryX=1;entryY=0.5;entryDx=0;entryDy=0;exitX=0.5;exitY=1;exitDx=0;exitDy=0;" edge="1" parent="1" source="_mMUSFEcQRph6svDePOc-38" target="TX_lVik8w8mRBUl6CHea-2">
          <mxGeometry width="100" relative="1" as="geometry">
            <mxPoint x="1820" y="-570" as="sourcePoint" />
            <mxPoint x="1507" y="-520" as="targetPoint" />
          </mxGeometry>
        </mxCell>
      </root>
    </mxGraphModel>
  </diagram>
</mxfile>
